# xmcd
#
# Track frame offsets:
#	150
#	12584
#	25331
#	42954
#	62356
#	79409
#	94437
#	108187
#	126255
#	139664
#	152002
#	165323
#	179165
#
# Disc length: 2629 seconds
#
# Revision: 1
# Processed by: cddbd v1.5.2PL0 Copyright (c) Steve Scherf et al.
# Submitted via: audiograbber 1.83.01
#
DISCID=ab0a430d
DTITLE=Bob Wayne - Hits The Hits
DYEAR=2015
DGENRE=Country
TTITLE0=Rock And Roll
TTITLE1=Skyfall
TTITLE2=Sweet Child O' Mine
TTITLE3=Sympathy For The Devil
TTITLE4=I Shot The Sheriff
TTITLE5=Crazy
TTITLE6=Under The Bridge
TTITLE7=Radioactive
TTITLE8=Come Together
TTITLE9=Disturbia
TTITLE10=The Kids Aren't Alright
TTITLE11=All About That Bass
TTITLE12=Crazy Train
EXTD=
EXTT0=
EXTT1=
EXTT2=
EXTT3=
EXTT4=
EXTT5=
EXTT6=
EXTT7=
EXTT8=
EXTT9=
EXTT10=
EXTT11=
EXTT12=
PLAYORDER=
